# xmcd
#
# Track frame offsets: 
#        150
#        16157
#        30333
#        48341
#        64530
#        84793
#        101662
#        115663
#        136819
#        158125
#        175476
#        197941
#        214388
#        232491
#        251720
#        268929
#
# Disc length: 3862 seconds
#
# Revision: 2
# Processed by: cddbd v1.5.2PL0 Copyright (c) Steve Scherf et al.
# Submitted via: ExactAudioCopy v0.95b2
#
DISCID=de0f1410
DTITLE=｡?ｵｬｪ(TM) - ｡?ｵｬｪ(TM)01
DYEAR=1900
DGENRE=
TTITLE0=Liu01
TTITLE1=Liu02
TTITLE2=Liu03
TTITLE3=Liu04
TTITLE4=Liu05
TTITLE5=Liu06
TTITLE6=Liu07
TTITLE7=Liu08
TTITLE8=Liu09
TTITLE9=Liu10
TTITLE10=Liu11
TTITLE11=Liu12
TTITLE12=Liu13
TTITLE13=Liu14
TTITLE14=Liu15
TTITLE15=Liu16
EXTD=
EXTT0=
EXTT1=
EXTT2=
EXTT3=
EXTT4=
EXTT5=
EXTT6=
EXTT7=
EXTT8=
EXTT9=
EXTT10=
EXTT11=
EXTT12=
EXTT13=
EXTT14=
EXTT15=
PLAYORDER=
